<?xml version="1.0" encoding="utf-8"?>
<!-- Generator: Adobe Illustrator 16.0.0, SVG Export Plug-In . SVG Version: 6.00 Build 0)  -->
<!DOCTYPE svg PUBLIC "-//W3C//DTD SVG 1.1//EN" "http://www.w3.org/Graphics/SVG/1.1/DTD/svg11.dtd">
<svg version="1.1" id="Layer_1" xmlns="http://www.w3.org/2000/svg" xmlns:xlink="http://www.w3.org/1999/xlink" x="0px" y="0px"
	 width="841.89px" height="259px" viewBox="0 0 841.89 259" enable-background="new 0 0 841.89 259" xml:space="preserve">
<g>
	<g>
		<g>
			<path fill="#FFFFFF" d="M250.099,91.27c12.164,0,22.727,6.37,26.408,15.129l20.806-8.919
				c-6.401-13.537-21.126-26.277-44.012-26.277c-36.972,0-64.179,26.436-64.179,62.269c0,29.302,23.367,47.617,52.495,47.617
				c17.605,0,32.97-7.326,43.373-19.589l9.283-41.247h-51.056l-4.48,19.906h28.328l-2.881,12.741
				c-5.282,4.617-12.324,8.122-21.286,8.122c-18.726,0-29.929-12.9-29.929-28.984C212.969,108.787,230.253,91.27,250.099,91.27z
				 M366.297,112.45c-5.122-7.644-14.244-12.103-24.647-12.103c-26.247,0-40.812,25.639-40.812,48.89
				c0,20.384,12.003,31.852,29.449,31.852c9.283,0,16.645-3.823,23.206-11.468l-2.24,9.556h20.485l17.125-76.919h-20.486
				L366.297,112.45z M357.015,153.855c-4.161,5.255-10.563,9.236-17.766,9.236c-9.762,0-17.125-7.006-17.125-17.994
				c0-14.175,9.443-26.755,22.727-26.755c8.163,0,14.725,3.663,18.086,8.918L357.015,153.855z M438.163,81.236h-20.326
				l-4.642,21.021h-12.803l-4.002,17.677h12.804l-8.643,39.176c-0.479,1.912-0.64,4.301-0.64,5.256
				c0,11.467,9.282,16.723,23.046,16.723c4.962,0,9.765-1.274,12.645-3.345l-0.641-16.244c-0.961,0.796-3.521,1.592-5.603,1.592
				c-5.119,0-7.521-2.547-7.521-6.688c0-0.956,0-1.753,0.16-2.708l7.523-33.762h15.684l4-17.677h-15.684L438.163,81.236z
				 M496.489,100.347c-25.769,0-44.652,21.18-44.652,46.183c0,21.498,15.684,34.559,40.012,34.559
				c9.602,0,19.845-2.867,27.366-7.964l-6.242-14.173c-4.8,3.663-12.642,5.574-19.525,5.574c-14.402,0-21.286-8.76-21.286-15.289
				c0-0.478,0-1.434,0-1.911h57.456c0.641-2.389,1.602-8.122,1.602-12.739C531.219,113.086,516.335,100.347,496.489,100.347z
				 M512.973,133.312h-0.159h-38.412c1.602-8.44,9.764-16.402,20.807-16.402c12.165,0,17.926,7.007,17.926,14.81
				C513.134,132.038,513.134,132.994,512.973,133.312z M638.708,102.258l-26.088,51.758l-5.282-51.758h-18.085l-28.486,51.758
				l-2.884-51.758h-20.486l6.404,76.919h21.766l27.849-52.395l4.8,52.395h21.768l40.652-76.919H638.708z M723.857,102.258
				l-2.081,10.192c-5.12-7.644-14.243-12.103-24.648-12.103c-26.247,0-40.811,25.639-40.811,48.89
				c0,20.384,12.004,31.852,29.448,31.852c9.285,0,16.645-3.823,23.208-11.468l-2.24,9.556h20.483l17.127-76.919H723.857z
				 M712.494,153.855c-4.162,5.255-10.563,9.236-17.765,9.236c-9.764,0-17.126-7.006-17.126-17.994
				c0-14.175,9.443-26.755,22.726-26.755c8.165,0,14.726,3.663,18.088,8.918L712.494,153.855z M815.088,102.258l-32.328,53.509
				l-8.162-53.509h-21.127l13.764,77.238l-4.8,7.325c-2.722,3.981-5.443,5.255-9.605,5.255c-2.88,0-6.081-0.318-7.842-1.114
				l-6.722,17.519c3.683,1.273,8.482,1.91,12.965,1.91c12.804,0,21.444-4.937,29.927-18.633l56.339-89.5H815.088z"/>
		</g>
	</g>
	<g>
		<linearGradient id="SVGID_1_" gradientUnits="userSpaceOnUse" x1="16.748" y1="220.4434" x2="135.2656" y2="15.1649">
			<stop  offset="0" style="stop-color:#418AC9"/>
			<stop  offset="1" style="stop-color:#58C1A5"/>
		</linearGradient>
		<path fill-rule="evenodd" clip-rule="evenodd" fill="url(#SVGID_1_)" d="M4.394,35.6L119.061,5.809v243.663L4.394,213.311V35.6z"
			/>
		<linearGradient id="SVGID_2_" gradientUnits="userSpaceOnUse" x1="29.7563" y1="197.9121" x2="135.2656" y2="15.1647">
			<stop  offset="0" style="stop-color:#4288C8"/>
			<stop  offset="1" style="stop-color:#24B2C2"/>
		</linearGradient>
		<path fill-rule="evenodd" clip-rule="evenodd" fill="url(#SVGID_2_)" d="M4.394,35.6L119.061,5.809v243.663L4.394,35.6z"/>
		<linearGradient id="SVGID_3_" gradientUnits="userSpaceOnUse" x1="4.394" y1="109.5596" x2="119.061" y2="109.5596">
			<stop  offset="0" style="stop-color:#3684BC"/>
			<stop  offset="1" style="stop-color:#58C1A5"/>
		</linearGradient>
		<path fill-rule="evenodd" clip-rule="evenodd" fill="url(#SVGID_3_)" d="M4.394,35.6L119.061,5.809L4.394,213.311V35.6z"/>
		<path opacity="0.2" fill-rule="evenodd" clip-rule="evenodd" fill="#FFFFFF" d="M119.061,177.812v71.66L4.394,213.311
			L119.061,177.812z"/>
		<linearGradient id="SVGID_4_" gradientUnits="userSpaceOnUse" x1="67.5635" y1="62.4976" x2="40.124" y2="14.971">
			<stop  offset="0" style="stop-color:#3684BC"/>
			<stop  offset="1" style="stop-color:#58C1A5"/>
		</linearGradient>
		<path fill-rule="evenodd" clip-rule="evenodd" fill="url(#SVGID_4_)" d="M4.394,35.6L119.061,5.809L4.394,98.969V35.6z"/>
	</g>
</g>
</svg>
